<svg width="16" height="16" viewBox="0 0 16 16" fill="none" xmlns="http://www.w3.org/2000/svg">
<path fill-rule="evenodd" clip-rule="evenodd" d="M1.77778 16H14.2222C15.2041 16 16 15.2041 16 14.2222V1.77778C16 0.795938 15.2041 0 14.2222 0H1.77778C0.795938 0 0 0.795938 0 1.77778V14.2222C0 15.2041 0.795938 16 1.77778 16Z" fill="#464646"/>
<path fill-rule="evenodd" clip-rule="evenodd" d="M13.7778 13.7778H11.4035V9.7338C11.4035 8.62507 10.9822 8.00544 10.1046 8.00544C9.14991 8.00544 8.65113 8.65024 8.65113 9.7338V13.7778H6.36296V6.07407H8.65113V7.11176C8.65113 7.11176 9.33911 5.83871 10.9739 5.83871C12.6079 5.83871 13.7778 6.83656 13.7778 8.90027V13.7778ZM3.63318 5.06533C2.8538 5.06533 2.22222 4.42882 2.22222 3.64378C2.22222 2.85876 2.8538 2.22222 3.63318 2.22222C4.41258 2.22222 5.04378 2.85876 5.04378 3.64378C5.04378 4.42882 4.41258 5.06533 3.63318 5.06533ZM2.45169 13.7778H4.83764V6.07407H2.45169V13.7778Z" fill="white"/>
</svg>
