<svg width="16" height="16" viewBox="0 0 16 16" fill="none" xmlns="http://www.w3.org/2000/svg">
<path fill-rule="evenodd" clip-rule="evenodd" d="M2.13306 11.2216L1.18164 14.6954L4.73651 13.7632C5.716 14.2973 6.81872 14.5788 7.94094 14.5793H7.94385C11.6397 14.5793 14.6482 11.5716 14.6498 7.87555C14.6505 6.08427 13.9538 4.39998 12.6876 3.13284C11.4213 1.86571 9.73769 1.16766 7.94394 1.16675C4.24754 1.16675 1.23952 4.17386 1.23797 7.87017C1.23655 9.04658 1.54529 10.2026 2.13306 11.2216ZM2.37011 7.87063C2.3712 4.79854 4.87147 2.29917 7.94594 2.29917C8.67817 2.29744 9.40347 2.44096 10.0799 2.72144C10.7562 3.00191 11.3703 3.41376 11.8864 3.93315C12.4054 4.44971 12.8168 5.0641 13.0968 5.74074C13.3768 6.41738 13.5197 7.14283 13.5174 7.87509C13.5162 10.9474 11.0159 13.447 7.94384 13.447H7.94174C6.94138 13.4465 5.96043 13.178 5.10489 12.6702L4.90119 12.5495L2.79164 13.1027L3.3548 11.0467L3.22219 10.8359C2.664 9.9477 2.36859 8.91966 2.37011 7.87063Z" fill="#464646"/>
<path fill-rule="evenodd" clip-rule="evenodd" d="M6.26788 5.06768C6.14228 4.78869 6.01013 4.78304 5.89082 4.77821L5.56964 4.77429C5.4579 4.77429 5.27635 4.81622 5.12287 4.98392C4.96939 5.15162 4.53638 5.55692 4.53638 6.38129C4.53638 7.20566 5.13681 8.00224 5.22048 8.11416C5.30415 8.22608 6.37961 9.9717 8.08277 10.6433C9.4981 11.2015 9.7861 11.0905 10.0934 11.0626C10.4008 11.0347 11.0848 10.6573 11.2243 10.266C11.3638 9.87473 11.3639 9.53951 11.3221 9.46943C11.2803 9.39934 11.1685 9.35769 11.0008 9.27384C10.8331 9.18999 10.0095 8.78468 9.85592 8.72872C9.70234 8.67276 9.5907 8.64496 9.47887 8.81266C9.36704 8.98036 9.04631 9.3576 8.94852 9.46943C8.85072 9.58126 8.75311 9.59529 8.58541 9.51153C8.41771 9.42777 7.87816 9.25078 7.23798 8.67996C6.7399 8.23583 6.40368 7.68734 6.30579 7.51974C6.2079 7.35213 6.2954 7.26135 6.37943 7.17786C6.45462 7.10276 6.54695 6.98219 6.63089 6.88439C6.71483 6.7866 6.74245 6.71669 6.79823 6.60504C6.854 6.4934 6.82621 6.39533 6.78428 6.31157C6.74236 6.22781 6.4168 5.39906 6.26788 5.06768Z" fill="#464646"/>
</svg>
